<?xml version="1.0" standalone="no"?>
<!DOCTYPE svg PUBLIC "-//W3C//DTD SVG 20010904//EN"
 "http://www.w3.org/TR/2001/REC-SVG-20010904/DTD/svg10.dtd">
<svg version="1.0" xmlns="http://www.w3.org/2000/svg"
 width="700.000000pt" height="700.000000pt" viewBox="0 0 700.000000 700.000000"
 preserveAspectRatio="xMidYMid meet">
<metadata>
Created by potrace 1.11, written by Peter Selinger 2001-2013
</metadata>
<g transform="translate(0.000000,700.000000) scale(0.100000,-0.100000)"
fill="#000000" stroke="none">
<path d="M2265 6350 c-370 -6 -374 -6 -442 -67 -34 -30 -69 -92 -77 -133 -2
-14 -5 -233 -5 -487 l-1 -463 -311 0 c-327 0 -370 -4 -470 -50 -149 -67 -262
-213 -292 -376 -10 -55 -13 -444 -12 -1869 1 -1686 2 -1804 19 -1860 39 -133
146 -265 265 -324 130 -65 -57 -61 2561 -61 1626 1 2391 4 2425 11 83 18 193
78 255 139 68 68 107 132 137 230 l23 75 -3 1320 -2 1320 -24 60 c-51 129
-134 226 -241 283 -76 41 -124 55 -218 66 -18 2 -35 5 -37 8 -2 2 -5 92 -5
199 -2 256 -18 336 -106 515 -70 143 -190 312 -329 463 -60 66 -328 332 -442
441 -106 100 -123 115 -304 263 -52 42 -218 152 -279 184 -149 80 -264 110
-433 113 -283 4 -1338 5 -1652 0z"/>
</g>
</svg>
